<?xml version="1.0" encoding="utf-8"?>
<!-- Generator: Adobe Illustrator 26.0.3, SVG Export Plug-In . SVG Version: 6.00 Build 0)  -->
<svg version="1.1" id="Layer_1" xmlns="http://www.w3.org/2000/svg" xmlns:xlink="http://www.w3.org/1999/xlink" x="0px" y="0px"
	 viewBox="0 0 288 288" style="enable-background:new 0 0 288 288;" xml:space="preserve">
<g>
	<path d="M16.24,66.17c0.64-1.36,1.18-2.77,1.94-4.06c2.31-3.95,5.87-5.99,10.35-6.49c0.92-0.1,1.86-0.1,2.79-0.1
		c76.86,0,153.72-0.01,230.58,0c7.96,0,13.4,4,14.72,10.9c0.29,1.48,0.28,3.04,0.28,4.56c0.01,40.47,0.01,80.93,0.01,121.4
		c0,10.56-5.16,15.68-15.82,15.68c-54.8,0-109.6,0-164.41,0c-21.21,0-42.42,0-63.62,0c-9.98,0-12.96-1.95-16.83-11.03
		C16.24,153.4,16.24,109.78,16.24,66.17z M146.36,197.24c38.35,0,76.69,0,115.04,0c4.38,0,4.79-0.42,4.79-4.81
		c0-40.47,0-80.93,0-121.4c0-4.26-0.53-4.78-4.86-4.78c-76.52,0-153.04,0-229.57,0c-4.28,0-4.79,0.51-4.79,4.85
		c0,40.3,0,80.59,0,120.89c0,5.03,0.22,5.25,5.37,5.25C70.34,197.24,108.35,197.24,146.36,197.24z"/>
	<path d="M16.24,242.84c1.26-3.55,3.99-4.34,7.45-4.33c33.68,0.06,67.36,0.02,101.05,0.07c2.03,0,3.08-0.45,3.85-2.54
		c2.89-7.93,10.95-13.34,19.54-13.43c8.49-0.09,16.88,5.51,19.76,13.5c0.72,1.99,1.66,2.48,3.65,2.48
		c32.41-0.06,64.82-0.04,97.23-0.04c1.18,0,2.38,0.02,3.55,0.18c2.59,0.36,4.46,2.47,4.57,5c0.11,2.47-1.67,4.77-4.23,5.27
		c-1.24,0.24-2.52,0.3-3.79,0.3c-32.41,0.02-64.82,0.03-97.23-0.03c-2.05,0-3.05,0.5-3.81,2.58c-2.9,7.91-11.1,13.34-19.6,13.34
		c-8.62,0-16.78-5.51-19.7-13.57c-0.68-1.89-1.58-2.35-3.46-2.34c-33.77,0.06-67.53,0.02-101.3,0.08c-3.33,0.01-5.94-0.86-7.52-3.96
		C16.24,244.53,16.24,243.68,16.24,242.84z M137.75,243.82c-0.04,5.78,4.63,10.55,10.38,10.6c5.68,0.06,10.54-4.74,10.6-10.46
		c0.05-5.7-4.71-10.52-10.45-10.58C142.54,233.33,137.79,238.03,137.75,243.82z"/>
	<path d="M115.88,131.58c0-11.62-0.02-23.23,0.01-34.85c0.01-3.31,1.18-5.61,3.6-5.96c1.68-0.24,3.89,0.01,5.22,0.94
		c16.73,11.71,33.36,23.56,49.97,35.45c3.66,2.62,3.58,6.68-0.12,9.32c-16.55,11.82-33.14,23.58-49.71,35.39
		c-1.88,1.34-3.81,1.81-5.95,0.75c-2.23-1.11-3.03-3.03-3.03-5.43C115.89,155.32,115.88,143.45,115.88,131.58z M162.66,131.76
		c-12.08-8.59-23.85-16.95-35.84-25.48c0,17.15,0,33.86,0,50.97C138.85,148.7,150.56,140.37,162.66,131.76z"/>
</g>
</svg>
